<svg xmlns="http://www.w3.org/2000/svg" viewBox="0 0 100 200" width="100" height="200">
  <defs>
    <linearGradient id="grad1" x1="0%" y1="0%" x2="100%" y2="100%">
      <stop offset="0%" style="stop-color:#bb86fc;stop-opacity:1" />
      <stop offset="100%" style="stop-color:#03dac6;stop-opacity:1" />
    </linearGradient>
  </defs>
  <!-- Simple Treble Clef Path stylized -->
  <path d="M50 160c-15 0-25-10-25-25 0-15 15-20 20-30 5-10 5-20 0-30-5-5-10-15-10-25 0-20 15-35 30-35 15 0 20 15 20 25 0 20-15 40-25 60-5 10-10 20-10 30 0 5 5 10 10 10 10 0 15-10 15-20s-5-20-15-20c-5 0-10 5-10 10s5 10 10 10c5 0 5-5 5-5s0-10-10-10c-15 0-25 10-25 25s10 20 20 20 20-10 20-25c0-20-10-30-20-50-10-20-20-30-20-50 0-10 5-20 15-20 5 0 10 5 10 10 0 10-10 20-15 30-5 10-5 20 0 25 5 5 15 10 25 10 20 0 35-15 35-35S70 10 50 10C25 10 10 35 10 65c0 20 10 35 25 45 5 3 5 10 0 15-10 10-25 25-25 45 0 25 20 45 40 45s30-15 30-30c0-10-5-15-10-15s-10 5-10 10c0 5 5 5 5 5s5-5 5-5c0-5-5-10-10-10-10 0-15 10-15 20s10 20 20 20c15 0 25-15 25-30" 
  fill="url(#grad1)" stroke="white" stroke-width="2" />
</svg>